<svg width="40" height="40" viewBox="0 0 40 40" fill="none" xmlns="http://www.w3.org/2000/svg">
<path d="M12.5 27.5L24.1667 24.1667L27.5 12.5L15.8333 15.8333L12.5 27.5ZM20 22.5C19.3056 22.5 18.7153 22.257 18.2292 21.7708C17.7431 21.2847 17.5 20.6945 17.5 20C17.5 19.3056 17.7431 18.7153 18.2292 18.2292C18.7153 17.7431 19.3056 17.5 20 17.5C20.6944 17.5 21.2847 17.7431 21.7708 18.2292C22.2569 18.7153 22.5 19.3056 22.5 20C22.5 20.6945 22.2569 21.2847 21.7708 21.7708C21.2847 22.257 20.6944 22.5 20 22.5ZM20 36.6667C17.6944 36.6667 15.5278 36.2292 13.5 35.3542C11.4722 34.4792 9.70834 33.2917 8.20834 31.7917C6.70834 30.2917 5.52084 28.5278 4.64584 26.5C3.77084 24.4722 3.33334 22.3056 3.33334 20C3.33334 17.6945 3.77084 15.5278 4.64584 13.5C5.52084 11.4722 6.70834 9.70834 8.20834 8.20834C9.70834 6.70834 11.4722 5.52084 13.5 4.64584C15.5278 3.77084 17.6944 3.33334 20 3.33334C22.3056 3.33334 24.4722 3.77084 26.5 4.64584C28.5278 5.52084 30.2917 6.70834 31.7917 8.20834C33.2917 9.70834 34.4792 11.4722 35.3542 13.5C36.2292 15.5278 36.6667 17.6945 36.6667 20C36.6667 22.3056 36.2292 24.4722 35.3542 26.5C34.4792 28.5278 33.2917 30.2917 31.7917 31.7917C30.2917 33.2917 28.5278 34.4792 26.5 35.3542C24.4722 36.2292 22.3056 36.6667 20 36.6667ZM20 33.3333C23.6944 33.3333 26.8403 32.0347 29.4375 29.4375C32.0347 26.8403 33.3333 23.6945 33.3333 20C33.3333 16.3056 32.0347 13.1597 29.4375 10.5625C26.8403 7.96529 23.6944 6.66668 20 6.66668C16.3056 6.66668 13.1597 7.96529 10.5625 10.5625C7.96528 13.1597 6.66667 16.3056 6.66667 20C6.66667 23.6945 7.96528 26.8403 10.5625 29.4375C13.1597 32.0347 16.3056 33.3333 20 33.3333Z" fill="#1F1F1F"/>
</svg>
