<svg width="40" height="40" viewBox="0 0 40 40" fill="none" xmlns="http://www.w3.org/2000/svg">
<path d="M20 40L17.1 37.1662C13.7333 33.8601 10.95 31.0082 8.75 28.6104C6.55 26.2125 4.8 24.0599 3.5 22.1526C2.2 20.2452 1.29167 18.4923 0.775 16.8937C0.258333 15.2952 0 13.6603 0 11.9891C0 8.57402 1.05 5.72207 3.15 3.43324C5.25 1.14441 7.86667 0 11 0C12.7333 0 14.3833 0.399637 15.95 1.19891C17.5167 1.99818 18.8667 3.12443 20 4.57766C21.1333 3.12443 22.4833 1.99818 24.05 1.19891C25.6167 0.399637 27.2667 0 29 0C32.1333 0 34.75 1.14441 36.85 3.43324C38.95 5.72207 40 8.57402 40 11.9891C40 13.6603 39.7417 15.2952 39.225 16.8937C38.7083 18.4923 37.8 20.2452 36.5 22.1526C35.2 24.0599 33.45 26.2125 31.25 28.6104C29.05 31.0082 26.2667 33.8601 22.9 37.1662L20 40ZM20 34.1144C23.2 30.99 25.8333 28.3106 27.9 26.0763C29.9667 23.842 31.6 21.8983 32.8 20.2452C34 18.5922 34.8333 17.1208 35.3 15.8311C35.7667 14.5413 36 13.2607 36 11.9891C36 9.80926 35.3333 7.99273 34 6.53951C32.6667 5.08629 31 4.35967 29 4.35967C27.4333 4.35967 25.9833 4.84105 24.65 5.80381C23.3167 6.76658 22.4 7.99273 21.9 9.48229H18.1C17.6 7.99273 16.6833 6.76658 15.35 5.80381C14.0167 4.84105 12.5667 4.35967 11 4.35967C9 4.35967 7.33333 5.08629 6 6.53951C4.66667 7.99273 4 9.80926 4 11.9891C4 13.2607 4.23333 14.5413 4.7 15.8311C5.16667 17.1208 6 18.5922 7.2 20.2452C8.4 21.8983 10.0333 23.842 12.1 26.0763C14.1667 28.3106 16.8 30.99 20 34.1144Z" fill="#1F1F1F"/>
</svg>
