<svg width="40" height="40" viewBox="0 0 40 40" fill="none" xmlns="http://www.w3.org/2000/svg">
<path d="M6.66666 31.6667V28.3333H10V16.6667C10 14.3611 10.6944 12.3125 12.0833 10.5208C13.4722 8.72918 15.2778 7.55557 17.5 7.00001V5.83334C17.5 5.1389 17.7431 4.54862 18.2292 4.06251C18.7153 3.5764 19.3056 3.33334 20 3.33334C20.6944 3.33334 21.2847 3.5764 21.7708 4.06251C22.2569 4.54862 22.5 5.1389 22.5 5.83334V7.00001C24.7222 7.55557 26.5278 8.72918 27.9167 10.5208C29.3056 12.3125 30 14.3611 30 16.6667V28.3333H33.3333V31.6667H6.66666ZM20 36.6667C19.0833 36.6667 18.2986 36.3403 17.6458 35.6875C16.9931 35.0347 16.6667 34.25 16.6667 33.3333H23.3333C23.3333 34.25 23.0069 35.0347 22.3542 35.6875C21.7014 36.3403 20.9167 36.6667 20 36.6667ZM13.3333 28.3333H26.6667V16.6667C26.6667 14.8333 26.0139 13.2639 24.7083 11.9583C23.4028 10.6528 21.8333 10 20 10C18.1667 10 16.5972 10.6528 15.2917 11.9583C13.9861 13.2639 13.3333 14.8333 13.3333 16.6667V28.3333Z" fill="#1F1F1F"/>
</svg>
