<svg width="40" height="40" viewBox="0 0 40 40" fill="none" xmlns="http://www.w3.org/2000/svg">
<path d="M18.3333 28.3333H21.6667V21.6666H28.3333V18.3333H21.6667V11.6666H18.3333V18.3333H11.6667V21.6666H18.3333V28.3333ZM20 36.6666C17.6944 36.6666 15.5278 36.2291 13.5 35.3541C11.4722 34.4791 9.70834 33.2916 8.20834 31.7916C6.70834 30.2916 5.52084 28.5278 4.64584 26.5C3.77084 24.4722 3.33334 22.3055 3.33334 20C3.33334 17.6944 3.77084 15.5278 4.64584 13.5C5.52084 11.4722 6.70834 9.70831 8.20834 8.20831C9.70834 6.70831 11.4722 5.52081 13.5 4.64581C15.5278 3.77081 17.6944 3.33331 20 3.33331C22.3056 3.33331 24.4722 3.77081 26.5 4.64581C28.5278 5.52081 30.2917 6.70831 31.7917 8.20831C33.2917 9.70831 34.4792 11.4722 35.3542 13.5C36.2292 15.5278 36.6667 17.6944 36.6667 20C36.6667 22.3055 36.2292 24.4722 35.3542 26.5C34.4792 28.5278 33.2917 30.2916 31.7917 31.7916C30.2917 33.2916 28.5278 34.4791 26.5 35.3541C24.4722 36.2291 22.3056 36.6666 20 36.6666ZM20 33.3333C23.7222 33.3333 26.875 32.0416 29.4583 29.4583C32.0417 26.875 33.3333 23.7222 33.3333 20C33.3333 16.2778 32.0417 13.125 29.4583 10.5416C26.875 7.95831 23.7222 6.66665 20 6.66665C16.2778 6.66665 13.125 7.95831 10.5417 10.5416C7.95834 13.125 6.66667 16.2778 6.66667 20C6.66667 23.7222 7.95834 26.875 10.5417 29.4583C13.125 32.0416 16.2778 33.3333 20 33.3333Z" fill="#1F1F1F"/>
</svg>
