<svg width="40" height="40" viewBox="0 0 40 40" fill="none" xmlns="http://www.w3.org/2000/svg">
<path d="M9.75 28.5C11.1667 27.4166 12.75 26.5625 14.5 25.9375C16.25 25.3125 18.0833 25 20 25C21.9167 25 23.75 25.3125 25.5 25.9375C27.25 26.5625 28.8333 27.4166 30.25 28.5C31.2222 27.3611 31.9792 26.0694 32.5208 24.625C33.0625 23.1805 33.3333 21.6389 33.3333 20C33.3333 16.3055 32.0347 13.1597 29.4375 10.5625C26.8403 7.96526 23.6944 6.66665 20 6.66665C16.3056 6.66665 13.1597 7.96526 10.5625 10.5625C7.96528 13.1597 6.66667 16.3055 6.66667 20C6.66667 21.6389 6.9375 23.1805 7.47917 24.625C8.02084 26.0694 8.77778 27.3611 9.75 28.5ZM20 21.6666C18.3611 21.6666 16.9792 21.1041 15.8542 19.9791C14.7292 18.8541 14.1667 17.4722 14.1667 15.8333C14.1667 14.1944 14.7292 12.8125 15.8542 11.6875C16.9792 10.5625 18.3611 9.99998 20 9.99998C21.6389 9.99998 23.0208 10.5625 24.1458 11.6875C25.2708 12.8125 25.8333 14.1944 25.8333 15.8333C25.8333 17.4722 25.2708 18.8541 24.1458 19.9791C23.0208 21.1041 21.6389 21.6666 20 21.6666ZM20 36.6666C17.6944 36.6666 15.5278 36.2291 13.5 35.3541C11.4722 34.4791 9.70834 33.2916 8.20834 31.7916C6.70834 30.2916 5.52084 28.5278 4.64584 26.5C3.77084 24.4722 3.33334 22.3055 3.33334 20C3.33334 17.6944 3.77084 15.5278 4.64584 13.5C5.52084 11.4722 6.70834 9.70831 8.20834 8.20831C9.70834 6.70831 11.4722 5.52081 13.5 4.64581C15.5278 3.77081 17.6944 3.33331 20 3.33331C22.3056 3.33331 24.4722 3.77081 26.5 4.64581C28.5278 5.52081 30.2917 6.70831 31.7917 8.20831C33.2917 9.70831 34.4792 11.4722 35.3542 13.5C36.2292 15.5278 36.6667 17.6944 36.6667 20C36.6667 22.3055 36.2292 24.4722 35.3542 26.5C34.4792 28.5278 33.2917 30.2916 31.7917 31.7916C30.2917 33.2916 28.5278 34.4791 26.5 35.3541C24.4722 36.2291 22.3056 36.6666 20 36.6666ZM20 33.3333C21.4722 33.3333 22.8611 33.118 24.1667 32.6875C25.4722 32.2569 26.6667 31.6389 27.75 30.8333C26.6667 30.0278 25.4722 29.4097 24.1667 28.9791C22.8611 28.5486 21.4722 28.3333 20 28.3333C18.5278 28.3333 17.1389 28.5486 15.8333 28.9791C14.5278 29.4097 13.3333 30.0278 12.25 30.8333C13.3333 31.6389 14.5278 32.2569 15.8333 32.6875C17.1389 33.118 18.5278 33.3333 20 33.3333ZM20 18.3333C20.7222 18.3333 21.3194 18.0972 21.7917 17.625C22.2639 17.1528 22.5 16.5555 22.5 15.8333C22.5 15.1111 22.2639 14.5139 21.7917 14.0416C21.3194 13.5694 20.7222 13.3333 20 13.3333C19.2778 13.3333 18.6806 13.5694 18.2083 14.0416C17.7361 14.5139 17.5 15.1111 17.5 15.8333C17.5 16.5555 17.7361 17.1528 18.2083 17.625C18.6806 18.0972 19.2778 18.3333 20 18.3333Z" fill="#1F1F1F"/>
</svg>
