<svg width="40" height="40" viewBox="0 0 40 40" fill="none" xmlns="http://www.w3.org/2000/svg">
<path d="M32 7.33338L4.83331 17.8334C2.99998 18.5 2.99998 19.6667 4.49998 20L11.3333 22.1667L14 30.1667C14.3333 31 14.1666 31.3334 15 31.3334C15.6666 31.3334 16 31 16.3333 30.6667C16.5 30.5 18 29 19.6666 27.3334L26.6666 32.5C28 33.1667 28.8333 32.8334 29.1666 31.3334L33.8333 9.50005C34.3333 7.66672 33.1666 6.66672 32 7.33338ZM28.5 12.3334L15.5 24.1667L15 29.6667L12.3333 21.6667L27.6666 12C28.3333 11.5 29 11.8334 28.5 12.3334Z" fill="black"/>
</svg>
